<?xml version="1.0" standalone="no"?>
<!DOCTYPE svg PUBLIC "-//W3C//DTD SVG 20010904//EN"
 "http://www.w3.org/TR/2001/REC-SVG-20010904/DTD/svg10.dtd">
<svg version="1.0" xmlns="http://www.w3.org/2000/svg"
 width="1056.000000pt" height="192.000000pt" viewBox="0 0 1056.000000 192.000000"
 preserveAspectRatio="xMidYMid meet">
<metadata>
Created by potrace 1.16, written by Peter Selinger 2001-2019
</metadata>
<g transform="translate(0.000000,192.000000) scale(0.100000,-0.100000)"
fill="#000000" stroke="none">
<path d="M477 965 c-262 -525 -477 -957 -477 -960 0 -3 2161 -5 4803 -5 l4802
0 478 955 c262 525 477 957 477 960 0 3 -2161 5 -4803 5 l-4802 0 -478 -955z
m9333 -5 l-360 -720 -4530 0 -4530 0 360 720 360 720 4530 0 4530 0 -360 -720z"/>
<path d="M4370 1030 l0 -350 70 0 70 0 0 148 c0 169 9 211 51 246 38 33 73 33
104 1 25 -24 25 -26 25 -210 l0 -185 71 0 70 0 -3 208 c-3 176 -6 212 -21 240
-26 48 -72 72 -135 72 -61 0 -99 -17 -136 -60 l-26 -32 0 136 0 136 -70 0 -70
0 0 -350z"/>
<path d="M5730 1030 l0 -350 70 0 70 0 0 148 c0 169 9 211 51 246 38 33 73 33
104 1 25 -24 25 -26 25 -210 l0 -185 71 0 70 0 -3 208 c-3 176 -6 212 -21 240
-26 48 -72 72 -135 72 -61 0 -99 -17 -136 -60 l-26 -32 0 136 0 136 -70 0 -70
0 0 -350z"/>
<path d="M5181 1297 c-5 -13 -15 -42 -22 -65 -12 -41 -13 -42 -56 -42 l-43 0
0 -45 0 -45 40 0 40 0 0 -157 c0 -174 9 -207 63 -247 32 -23 131 -33 222 -21
l55 6 0 45 0 44 -83 -3 c-120 -3 -117 -8 -117 179 l0 154 90 0 90 0 0 45 0 45
-90 0 -90 0 0 65 0 65 -45 0 c-38 0 -47 -4 -54 -23z"/>
<path d="M7881 1297 c-5 -13 -15 -42 -22 -65 -12 -41 -13 -42 -56 -42 l-43 0
0 -45 0 -45 40 0 40 0 0 -157 c0 -174 9 -207 63 -247 32 -23 131 -33 222 -21
l55 6 0 45 0 44 -83 -3 c-120 -3 -117 -8 -117 179 l0 154 90 0 90 0 0 45 0 45
-90 0 -90 0 0 65 0 65 -45 0 c-38 0 -47 -4 -54 -23z"/>
<path d="M2350 995 l0 -315 66 0 66 0 -4 210 c-2 116 -3 210 -2 210 0 0 36
-94 80 -210 l79 -210 88 0 87 0 0 315 0 315 -66 0 -65 0 3 -224 3 -223 -85
223 -85 224 -82 0 -83 0 0 -315z"/>
<path d="M3800 1181 c-76 -40 -118 -167 -100 -303 10 -76 16 -93 47 -136 32
-42 72 -62 128 -62 58 0 105 20 133 55 l22 28 -6 -59 c-10 -105 -30 -134 -93
-134 -30 0 -64 24 -73 50 -3 10 -21 11 -71 6 -78 -9 -85 -23 -40 -77 41 -48
95 -69 183 -69 119 0 195 48 220 138 6 20 11 157 13 305 l2 267 -67 0 -68 0 0
-36 0 -37 -21 27 c-11 14 -34 33 -49 41 -40 21 -118 19 -160 -4z m178 -94 c62
-50 61 -244 -2 -296 -26 -22 -86 -9 -110 22 -18 24 -21 43 -21 126 0 77 4 103
18 124 29 45 77 55 115 24z"/>
<path d="M7294 1181 c-17 -10 -40 -30 -51 -45 l-21 -26 -6 40 -6 40 -65 0 -65
0 0 -255 0 -255 70 0 70 0 0 148 c0 169 9 211 51 246 36 31 68 33 100 7 23
-19 24 -23 27 -210 l3 -191 70 0 70 0 -3 208 c-3 230 -9 255 -71 292 -43 27
-131 27 -173 1z"/>
<path d="M3060 1145 l0 -45 70 0 70 0 0 -165 0 -165 -95 0 -95 0 0 -45 0 -45
245 0 245 0 0 45 0 45 -80 0 -80 0 0 210 0 210 -140 0 -140 0 0 -45z"/>
<path d="M6402 983 c3 -231 9 -256 71 -293 63 -39 176 -19 213 37 13 20 18 23
25 12 5 -8 9 -24 9 -36 0 -22 4 -23 65 -23 l65 0 0 255 0 255 -70 0 -70 0 0
-157 c0 -134 -3 -164 -20 -200 -24 -54 -60 -73 -98 -52 -46 26 -52 50 -52 237
l0 172 -71 0 -70 0 3 -207z"/>
</g>
</svg>
